<svg xmlns="http://www.w3.org/2000/svg" viewBox="0 0 144.68 139.01"><defs><style>.cls-1{fill:#1d1d1b;}.cls-1,.cls-2{stroke:#fff;stroke-miterlimit:10;}.cls-2{fill:none;}</style></defs><g id="Слой_2" data-name="Слой 2"><g id="Слой_1-2" data-name="Слой 1"><path class="cls-1" d="M61.86,3.43A3,3,0,0,0,58.75.56L3.38,2.8A3,3,0,0,0,.5,5.92L5.26,123.06a3,3,0,0,0,3.12,2.88l55.36-2.25a3,3,0,0,0,2.88-3.12Z"/><rect class="cls-1" x="55.29" y="2.96" width="61.41" height="124.61" rx="3" transform="translate(6.92 -8.23) rotate(5.71)"/><rect class="cls-1" x="72.89" y="11.31" width="61.41" height="123.23" rx="3" transform="translate(-11.22 19.37) rotate(-10.14)"/><path class="cls-2" d="M22.58,22a7.33,7.33,0,0,0-7.33,7.34c0,4.05,3.28,11.23,7.33,11.23s7.34-7.18,7.34-11.23A7.34,7.34,0,0,0,22.58,22Z"/><path class="cls-1" d="M42.72,83c0,4-3.28,11.23-7.33,11.23S28.05,87.05,28.05,83a7.34,7.34,0,1,1,14.67,0Z"/><circle class="cls-2" cx="22.58" cy="29.39" r="4.52"/><circle class="cls-1" cx="35.39" cy="83.42" r="4.52"/><line class="cls-2" x1="2.46" y1="54.18" x2="20.34" y2="39.8"/><line class="cls-1" x1="25.99" y1="38.83" x2="70.84" y2="64.21"/><line class="cls-1" x1="4.09" y1="90.68" x2="31.64" y2="92.15"/><line class="cls-1" x1="39.89" y1="91.2" x2="73.2" y2="77.42"/><line class="cls-1" x1="53.09" y1="85.74" x2="59.88" y2="105.31"/><path class="cls-1" d="M74,102.31c-.4,4-4.38,10.85-8.41,10.45s-6.59-7.88-6.19-11.91A7.34,7.34,0,0,1,74,102.31Z"/><circle class="cls-1" cx="66.69" cy="102" r="4.52"/><line class="cls-1" x1="68.27" y1="111.69" x2="79.6" y2="115.7"/><rect class="cls-1" x="77.24" y="24.13" width="48.7" height="75.22" rx="6.72" transform="matrix(0.98, -0.18, 0.18, 0.98, -9.28, 18.84)"/><rect class="cls-1" x="86.89" y="106.01" width="48.7" height="19.41" rx="6.72" transform="translate(-18.63 21.38) rotate(-10.14)"/><path class="cls-1" d="M124.35,50.68l-5.11,22.43c-.51,1.91-1.86,2.15-3,.54l-8-11.42c-1-1.41-2.18-1.2-2.63.47l-.28,1.06c-.56,2.1-2,2.37-3.3.59L100.3,62c-1-1.41-2.18-1.2-2.63.47h0c-.56,2.1-2,2.37-3.3.59l-4.24-6c-1-1.41-2.18-1.2-2.63.47L83.9,71c-.56,2.1-2.05,2.37-3.3.59L78.06,68"/></g></g></svg>