<?xml version="1.0" encoding="UTF-8" standalone="no"?>
<svg
   fill="none"
   height="100"
   viewBox="0 0 100 100"
   width="100"
   version="1.1"
   id="svg10"
   sodipodi:docname="my_geo.svg"
   inkscape:version="1.2.1 (9c6d41e410, 2022-07-14)"
   xmlns:inkscape="http://www.inkscape.org/namespaces/inkscape"
   xmlns:sodipodi="http://sodipodi.sourceforge.net/DTD/sodipodi-0.dtd"
   xmlns="http://www.w3.org/2000/svg"
   xmlns:svg="http://www.w3.org/2000/svg">
  <defs
     id="defs14" />
  <sodipodi:namedview
     id="namedview12"
     pagecolor="#ffffff"
     bordercolor="#000000"
     borderopacity="0.25"
     inkscape:showpageshadow="2"
     inkscape:pageopacity="0.0"
     inkscape:pagecheckerboard="0"
     inkscape:deskcolor="#d1d1d1"
     showgrid="false"
     inkscape:zoom="8.37"
     inkscape:cx="44.563919"
     inkscape:cy="50.059737"
     inkscape:window-width="1920"
     inkscape:window-height="1017"
     inkscape:window-x="-8"
     inkscape:window-y="-8"
     inkscape:window-maximized="1"
     inkscape:current-layer="svg10" />
  <g
     clip-rule="evenodd"
     fill="#8b8b8b"
     fill-rule="evenodd"
     id="g8"
     style="fill:#ffffff">
    <path
       d="m49.9997 55c6.5584 0 11.875-5.3166 11.875-11.875 0-6.5582-5.3166-11.875-11.875-11.875-6.5585 0-11.875 5.3168-11.875 11.875 0 6.5584 5.3165 11.875 11.875 11.875zm0-2.5c5.1776 0 9.375-4.1971 9.375-9.375 0-5.1777-4.1974-9.375-9.375-9.375-5.1777 0-9.375 4.1973-9.375 9.375 0 5.1779 4.1973 9.375 9.375 9.375z"
       id="path4"
       style="fill:#ffffff" />
    <path
       d="m45.4479 82.5393c.1931 2.1255 1.8434 4.3361 4.5521 4.3361s4.3589-2.2106 4.5523-4.3361c.2121-2.3345 1.9993-5.0031 4.9635-7.9584 2.0218-2.0153 4.2802-3.8787 6.4589-5.6761.9726-.8023 1.9292-1.5918 2.8416-2.3755 1.9887-1.7081 3.8916-3.6055 5.511-5.8453 3.569-4.9368 5.6727-11.006 5.6727-17.5586 0-16.569-13.4311-29.9999-30-29.9999-13.2987 0-24.57 8.6508-28.5057 20.6256-1.4933 4.5435-1.8704 9.4306-1.1169 14.144.7549 4.7224 2.6113 9.0763 5.2953 12.7889 1.6194 2.2398 3.5223 4.1372 5.511 5.8453.9123.7837 1.8689 1.5729 2.8413 2.375 2.1787 1.7974 4.4373 3.6613 6.4592 5.6766 2.9642 2.9553 4.7513 5.6239 4.9637 7.9584zm4.5521-66.9138c-12.1871 0-22.5221 7.9269-26.1307 18.9062-1.3676 4.161-1.7144 8.645-1.0232 12.9687.6915 4.326 2.3918 8.3152 4.8526 11.7189 1.4681 2.0305 3.2184 3.7855 5.1139 5.4134.8368.719 1.7487 1.4713 2.6961 2.2535 5.385 4.4442 11.9207 9.8378 12.4289 15.4268.1029 1.1339.924 2.0624 2.0624 2.0624s1.9594-.9285 2.0626-2.0624c.5079-5.589 7.0437-10.9826 12.4287-15.4268.9474-.7819 1.8592-1.5345 2.6963-2.2535 1.8953-1.6279 3.6455-3.3829 5.1137-5.4134 3.2713-4.5247 5.1987-10.0845 5.1987-16.0939 0-15.1882-12.3119-27.4999-27.5-27.4999z"
       id="path6"
       style="fill:#ffffff" />
  </g>
  <path
     style="fill:#008aed;stroke-width:0.119474;fill-opacity:1"
     d="M 49.034848,84.017467 C 48.476935,83.64149 48.113987,83.059128 48.025946,82.398655 47.587121,79.106616 45.88543,76.326921 41.943663,72.463302 40.050268,70.607446 39.196682,69.855783 35.424134,66.722244 29.710718,61.976588 27.571611,59.52953 25.439761,55.300493 24.114868,52.67225 23.167497,49.546351 22.747054,46.415771 c -0.188719,-1.405182 -0.188604,-5.206791 1.99e-4,-6.571088 0.965452,-6.976399 4.198478,-13.049536 9.270101,-17.41359 8.056863,-6.932809 19.085285,-8.651722 28.827363,-4.493093 7.917193,3.379635 14.072029,10.770865 15.904177,19.099037 0.681663,3.098553 0.855088,6.79041 0.454599,9.677419 -0.516267,3.721612 -1.843439,7.499121 -3.708737,10.556113 -1.927672,3.159217 -3.907193,5.25351 -8.978627,9.499203 -4.343915,3.636631 -4.491582,3.767076 -6.49298,5.7358 -3.955419,3.890847 -5.60963,6.596251 -6.049095,9.893083 -0.144655,1.085191 -0.98554,1.890473 -1.974054,1.890473 -0.386753,0 -0.687755,-0.08472 -0.965152,-0.271661 z m 3.994325,-29.34188 c 4.243375,-1.137879 7.505348,-4.489625 8.584261,-8.820512 0.390671,-1.568203 0.365812,-4.076055 -0.05617,-5.666172 -0.574257,-2.163959 -1.44105,-3.702368 -3.00964,-5.341602 C 57.023483,33.254517 55.299816,32.231802 53.03274,31.575115 52.211558,31.337249 51.822759,31.30227 50,31.30227 c -1.822759,0 -2.211558,0.03498 -3.03274,0.272845 -4.471903,1.295344 -7.630258,4.596947 -8.640465,9.032361 -0.3002,1.318057 -0.270171,3.914878 0.06068,5.247599 1.13018,4.552512 4.577438,7.936226 9.103561,8.935757 1.396668,0.308434 4.173652,0.250647 5.538134,-0.115245 z"
     id="path437" />
  <path
     style="fill:#ffffff;fill-opacity:1;stroke:#ffffff;stroke-width:0;stroke-dasharray:none;stroke-opacity:1"
     d="m 47.528688,52.956469 c -7.446634,-1.949731 -10.17525,-11.066513 -4.988993,-16.669097 3.000747,-3.241633 7.635599,-4.19513 11.606923,-2.387813 6.297969,2.866154 7.97377,10.920818 3.337402,16.041083 -1.338241,1.477912 -3.071455,2.512358 -5.062899,3.021722 -1.380749,0.353163 -3.530976,0.350573 -4.892433,-0.0059 z"
     id="path4917" />
</svg>
